<svg width="21" height="20" viewBox="0 0 21 20" fill="none" xmlns="http://www.w3.org/2000/svg">
<path d="M18.7172 13.6386L15.8893 13.3158C15.5568 13.2767 15.2198 13.3135 14.9035 13.4234C14.5873 13.5334 14.3 13.7135 14.0634 13.9504L12.0148 15.999C8.85422 14.3915 6.28525 11.8225 4.6778 8.66193L6.73752 6.60221C7.21626 6.12347 7.45006 5.45546 7.37213 4.77631L7.04926 1.97065C6.98613 1.42752 6.72548 0.926578 6.31693 0.563191C5.90837 0.199803 5.38045 -0.000648259 4.83367 1.57505e-06H2.90756C1.64947 1.57505e-06 0.602913 1.04656 0.680848 2.30465C1.27093 11.8127 8.87516 19.4058 18.3721 19.9959C19.6302 20.0738 20.6768 19.0273 20.6768 17.7692V15.8431C20.6879 14.7186 19.8417 13.7722 18.7172 13.6386V13.6386Z" fill="url(#paint0_linear_1_1073)"/>
<defs>
<linearGradient id="paint0_linear_1_1073" x1="1.4552" y1="0.666667" x2="22.2782" y2="15.8741" gradientUnits="userSpaceOnUse">
<stop stop-color="#AA1FFE"/>
<stop offset="1" stop-color="#DD22E6"/>
</linearGradient>
</defs>
</svg>
