<svg width="26" height="20" viewBox="0 0 26 20" fill="none" xmlns="http://www.w3.org/2000/svg">
<path d="M23.1768 0H3.17676C1.80176 0 0.689258 1.125 0.689258 2.5L0.676758 17.5C0.676758 18.875 1.80176 20 3.17676 20H23.1768C24.5518 20 25.6768 18.875 25.6768 17.5V2.5C25.6768 1.125 24.5518 0 23.1768 0ZM21.9268 17.5H4.42676C3.73926 17.5 3.17676 16.9375 3.17676 16.25V5L11.8518 10.425C12.6643 10.9375 13.6893 10.9375 14.5018 10.425L23.1768 5V16.25C23.1768 16.9375 22.6143 17.5 21.9268 17.5ZM13.1768 8.75L3.17676 2.5H23.1768L13.1768 8.75Z" fill="url(#paint0_linear_1_1074)"/>
<defs>
<linearGradient id="paint0_linear_1_1074" x1="1.64981" y1="0.666667" x2="23.4191" y2="20.5397" gradientUnits="userSpaceOnUse">
<stop stop-color="#AA1FFE"/>
<stop offset="1" stop-color="#DD22E6"/>
</linearGradient>
</defs>
</svg>
