<svg width="13" height="12" viewBox="0 0 13 12" fill="none" xmlns="http://www.w3.org/2000/svg">
<g id="ri:search-line">
<path id="Vector" d="M9.4657 8.3085L11.6072 10.4495L10.8997 11.157L8.7587 9.0155C7.96206 9.65411 6.9712 10.0015 5.9502 10C3.4662 10 1.4502 7.984 1.4502 5.5C1.4502 3.016 3.4662 1 5.9502 1C8.4342 1 10.4502 3.016 10.4502 5.5C10.4516 6.521 10.1043 7.51187 9.4657 8.3085ZM8.4627 7.9375C9.09725 7.28494 9.45163 6.41021 9.4502 5.5C9.4502 3.566 7.8837 2 5.9502 2C4.0162 2 2.4502 3.566 2.4502 5.5C2.4502 7.4335 4.0162 9 5.9502 9C6.86041 9.00143 7.73514 8.64706 8.3877 8.0125L8.4627 7.9375V7.9375Z" fill="white"/>
</g>
</svg>
