<svg width="24" height="24" viewBox="0 0 24 24" fill="none" xmlns="http://www.w3.org/2000/svg">
<path id="Vector" d="M7.2 24C6.54 24 5.9752 23.7652 5.5056 23.2956C5.0352 22.8252 4.8 22.26 4.8 21.6C4.8 20.94 5.0352 20.3748 5.5056 19.9044C5.9752 19.4348 6.54 19.2 7.2 19.2C7.86 19.2 8.4248 19.4348 8.8944 19.9044C9.3648 20.3748 9.6 20.94 9.6 21.6C9.6 22.26 9.3648 22.8252 8.8944 23.2956C8.4248 23.7652 7.86 24 7.2 24ZM19.2 24C18.54 24 17.9752 23.7652 17.5056 23.2956C17.0352 22.8252 16.8 22.26 16.8 21.6C16.8 20.94 17.0352 20.3748 17.5056 19.9044C17.9752 19.4348 18.54 19.2 19.2 19.2C19.86 19.2 20.4252 19.4348 20.8956 19.9044C21.3652 20.3748 21.6 20.94 21.6 21.6C21.6 22.26 21.3652 22.8252 20.8956 23.2956C20.4252 23.7652 19.86 24 19.2 24ZM6.18 4.8L9.06 10.8H17.46L20.76 4.8H6.18ZM5.04 2.4H22.74C23.2 2.4 23.55 2.6048 23.79 3.0144C24.03 3.4248 24.04 3.84 23.82 4.26L19.56 11.94C19.34 12.34 19.0448 12.65 18.6744 12.87C18.3048 13.09 17.9 13.2 17.46 13.2H8.52L7.2 15.6H21.6V18H7.2C6.3 18 5.62 17.6048 5.16 16.8144C4.7 16.0248 4.68 15.24 5.1 14.46L6.72 11.52L2.4 2.4H0V0H3.9L5.04 2.4ZM9.06 10.8H17.46H9.06Z" fill="white"/>
</svg>
