<svg width="56" height="56" viewBox="0 0 56 56" fill="none" xmlns="http://www.w3.org/2000/svg">
<g filter="url(#filter0_f_1015_36)">
<rect x="6" y="6" width="43.7289" height="43.7289" rx="3.64408" fill="url(#paint0_linear_1015_36)"/>
</g>
<path d="M6 10.0083C6 7.99577 7.63151 6.36426 9.64408 6.36426H46.0848C48.0974 6.36426 49.7289 7.99577 49.7289 10.0083V46.4491C49.7289 48.4617 48.0974 50.0932 46.0848 50.0932H9.64408C7.63151 50.0932 6 48.4617 6 46.4491V10.0083Z" fill="#07031D"/>
<path d="M34.4988 37.0855H21.029C20.6932 37.0855 20.3712 37.2189 20.1337 37.4564C19.8963 37.6938 19.7629 38.0159 19.7629 38.3517V39.6188C19.7629 39.6688 19.7727 39.7184 19.7919 39.7647C19.811 39.8109 19.8391 39.8529 19.8745 39.8883C19.9099 39.9238 19.9519 39.9518 19.9981 39.971C20.0444 39.9902 20.094 40 20.144 40H35.3837C35.4848 40 35.5818 39.9599 35.6533 39.8884C35.7248 39.8169 35.765 39.7199 35.765 39.6188V38.3518C35.765 38.1855 35.7323 38.0209 35.6687 37.8672C35.605 37.7136 35.5118 37.574 35.3942 37.4564C35.2766 37.3388 35.137 37.2455 34.9834 37.1819C34.8298 37.1183 34.6651 37.0855 34.4988 37.0855Z" fill="#C620F1"/>
<path d="M37.6876 16.5029H35.5757V15.8151C35.5757 15.599 35.4898 15.3917 35.337 15.2388C35.1842 15.086 34.977 15.0001 34.7608 15H20.9098C20.8027 15 20.6968 15.0211 20.5979 15.062C20.499 15.103 20.4091 15.163 20.3334 15.2387C20.2577 15.3144 20.1977 15.4043 20.1567 15.5032C20.1157 15.6021 20.0947 15.7081 20.0947 15.8151V16.5029H17.8857C17.3859 16.5035 16.9067 16.7023 16.5533 17.0557C16.1999 17.4092 16.001 17.8883 16.0004 18.3882V19.6095C15.9881 20.5882 16.2324 21.553 16.709 22.4078C17.1857 23.2626 17.878 23.9776 18.717 24.4816C19.4463 24.9022 20.2622 25.1506 21.1022 25.2075C21.1201 25.2087 21.1381 25.2093 21.1561 25.2094C21.1858 25.2084 21.2154 25.2056 21.2447 25.201C22.0531 26.5148 23.2343 27.5581 24.6378 28.1982C25.1512 28.4416 25.5839 28.8271 25.8848 29.3091C26.1856 29.7911 26.3419 30.3492 26.3351 30.9173V32.3169C26.3351 32.5677 26.2355 32.8082 26.0582 32.9855C25.8809 33.1629 25.6404 33.2625 25.3896 33.2625H23.435C23.1307 33.2626 22.839 33.3834 22.6239 33.5985C22.4087 33.8137 22.2879 34.1054 22.2879 34.4097V35.9779H33.3826V34.4095C33.3826 34.1053 33.2617 33.8135 33.0465 33.5984C32.8314 33.3834 32.5397 33.2625 32.2354 33.2625H30.2807C30.0299 33.2625 29.7894 33.1629 29.6121 32.9856C29.4348 32.8082 29.3351 32.5677 29.3351 32.3169V30.9171C29.3283 30.349 29.4846 29.7909 29.7855 29.3089C30.0863 28.8269 30.5191 28.4414 31.0325 28.198C32.433 27.5594 33.6123 26.5192 34.4207 25.2093C34.4374 25.2093 34.4543 25.2086 34.4712 25.2075C35.3111 25.1506 36.1268 24.9023 36.856 24.4816C37.695 23.9776 38.3874 23.2627 38.8641 22.4078C39.3408 21.553 39.5852 20.5882 39.5729 19.6095V18.3882C39.5723 17.8883 39.3735 17.4092 39.0201 17.0557C38.6667 16.7023 38.1875 16.5035 37.6876 16.5029ZM19.4495 23.2155C18.8323 22.8403 18.3241 22.3099 17.9756 21.6773C17.6271 21.0446 17.4503 20.3317 17.463 19.6095V18.3882C17.4631 18.2761 17.5077 18.1686 17.5869 18.0894C17.6662 18.0101 17.7737 17.9655 17.8857 17.9654H20.0947V21.1496C20.0953 21.9944 20.2346 22.8333 20.5071 23.6329C20.1364 23.5451 19.7803 23.4045 19.4495 23.2155ZM30.7623 21.5162L29.8722 22.1628C29.7702 22.237 29.6943 22.3415 29.6553 22.4615C29.6163 22.5814 29.6164 22.7106 29.6553 22.8305L29.9952 23.8766C30.0341 23.9966 30.0341 24.1258 29.9952 24.2458C29.9562 24.3657 29.8803 24.4703 29.7782 24.5444C29.6762 24.6186 29.5533 24.6585 29.4272 24.6585C29.301 24.6585 29.1781 24.6186 29.0761 24.5444L28.186 23.8979C28.084 23.8238 27.9611 23.7839 27.835 23.7839C27.7089 23.7839 27.586 23.8238 27.484 23.8979L26.5939 24.5444C26.4919 24.6186 26.369 24.6585 26.2429 24.6585C26.1168 24.6585 25.9939 24.6186 25.8918 24.5444C25.7898 24.4703 25.7138 24.3657 25.6749 24.2458C25.6359 24.1258 25.6359 23.9966 25.6749 23.8766L26.0148 22.8305C26.0537 22.7106 26.0537 22.5814 26.0148 22.4614C25.9758 22.3415 25.8998 22.237 25.7978 22.1628L24.9083 21.5162C24.8063 21.4421 24.7303 21.3376 24.6913 21.2176C24.6523 21.0976 24.6523 20.9684 24.6913 20.8485C24.7303 20.7285 24.8062 20.624 24.9082 20.5498C25.0103 20.4757 25.1332 20.4357 25.2593 20.4357H26.3592C26.4853 20.4357 26.6082 20.3958 26.7103 20.3217C26.8123 20.2476 26.8883 20.143 26.9272 20.0231L27.2672 18.977C27.3062 18.857 27.3821 18.7525 27.4841 18.6784C27.5862 18.6042 27.7091 18.5643 27.8352 18.5643C27.9613 18.5643 28.0842 18.6042 28.1863 18.6784C28.2883 18.7525 28.3643 18.857 28.4032 18.977L28.7432 20.0231C28.7822 20.143 28.8582 20.2475 28.9602 20.3216C29.0622 20.3958 29.1851 20.4357 29.3112 20.4357H30.4112C30.5374 20.4358 30.6602 20.4757 30.7623 20.5498C30.8643 20.624 30.9402 20.7285 30.9792 20.8485C31.0182 20.9684 31.0182 21.0976 30.9792 21.2176C30.9402 21.3375 30.8643 21.4421 30.7623 21.5162ZM38.1104 19.6095C38.123 20.3317 37.9462 21.0447 37.5976 21.6774C37.249 22.3101 36.7408 22.8405 36.1235 23.2157C35.8247 23.3868 35.5049 23.5184 35.1722 23.6072C35.439 22.8152 35.5753 21.9851 35.5759 21.1495V17.9653H37.6876C37.7997 17.9654 37.9072 18.01 37.9864 18.0892C38.0657 18.1685 38.1103 18.276 38.1104 18.388V19.6095Z" fill="#C620F1"/>
<defs>
<filter id="filter0_f_1015_36" x="0.533886" y="0.533886" width="54.6612" height="54.6612" filterUnits="userSpaceOnUse" color-interpolation-filters="sRGB">
<feFlood flood-opacity="0" result="BackgroundImageFix"/>
<feBlend mode="normal" in="SourceGraphic" in2="BackgroundImageFix" result="shape"/>
<feGaussianBlur stdDeviation="2.73306" result="effect1_foregroundBlur_1015_36"/>
</filter>
<linearGradient id="paint0_linear_1015_36" x1="7.70202" y1="7.45763" x2="53.2302" y2="40.7076" gradientUnits="userSpaceOnUse">
<stop stop-color="#AA1FFE"/>
<stop offset="1" stop-color="#DD22E6"/>
</linearGradient>
</defs>
</svg>
