<svg width="56" height="56" viewBox="0 0 56 56" fill="none" xmlns="http://www.w3.org/2000/svg">
<g filter="url(#filter0_f_1012_14)">
<rect x="6" y="5.99988" width="43.7289" height="43.7289" rx="3.64408" fill="url(#paint0_linear_1012_14)"/>
</g>
<path fill-rule="evenodd" clip-rule="evenodd" d="M6 10.0083C6 7.99577 7.63151 6.36426 9.64408 6.36426H46.0848C48.0974 6.36426 49.7289 7.99577 49.7289 10.0083V46.4491C49.7289 48.4617 48.0974 50.0932 46.0848 50.0932H9.64408C7.63151 50.0932 6 48.4617 6 46.4491V10.0083ZM19.2833 16.111L16.6331 19.8203C16.6016 19.8644 16.5828 19.9163 16.5789 19.9703C16.575 20.0244 16.586 20.0784 16.6108 20.1266C16.6356 20.1748 16.6731 20.2153 16.7193 20.2435C16.7656 20.2718 16.8187 20.2867 16.8729 20.2868L24.3644 20.294L27.504 15.8664H19.7584C19.6655 15.8664 19.5739 15.8886 19.4912 15.9312C19.4086 15.9737 19.3373 16.0353 19.2833 16.111ZM36.322 16.111L38.9895 19.8447C39.021 19.8888 39.0398 19.9408 39.0437 19.9949C39.0476 20.049 39.0365 20.1031 39.0117 20.1514C38.9868 20.1996 38.9492 20.24 38.9028 20.2682C38.8565 20.2964 38.8033 20.3113 38.749 20.3112L31.2356 20.304L28.1054 15.8664H35.8466C35.9396 15.8664 36.0312 15.8886 36.1139 15.9311C36.1966 15.9737 36.2679 16.0353 36.322 16.111ZM30.4553 21.2247L28.3869 18.2923V27.3229H35.8468C36.0476 27.3229 36.2402 27.2431 36.3822 27.1011C36.5243 26.9591 36.604 26.7664 36.604 26.5656V21.4776L30.932 21.4722C30.8385 21.472 30.7465 21.4494 30.6636 21.4064C30.5806 21.3633 30.5092 21.301 30.4553 21.2247ZM24.6659 21.4628H24.6667C24.7601 21.4627 24.852 21.4403 24.9349 21.3974C25.0178 21.3546 25.0892 21.2925 25.1432 21.2164L27.2194 18.2884V27.3229H19.7591C19.5582 27.3229 19.3656 27.2432 19.2236 27.1011C19.0816 26.9591 19.0018 26.7665 19.0018 26.5657V21.4675L24.6659 21.4628ZM20.5528 30.457H17.7149C17.6556 30.457 17.5969 30.4687 17.5422 30.4914C17.4874 30.514 17.4376 30.5473 17.3957 30.5892C17.3538 30.6312 17.3205 30.6809 17.2978 30.7357C17.2752 30.7905 17.2635 30.8492 17.2635 30.9085V40.5938C17.2635 40.7136 17.311 40.8284 17.3957 40.9131C17.4804 40.9978 17.5952 41.0454 17.7149 41.0454H20.5528C20.6821 41.0454 20.8101 41.02 20.9295 40.9705C21.049 40.9211 21.1575 40.8486 21.2489 40.7572C21.3403 40.6658 21.4128 40.5573 21.4623 40.4379C21.5118 40.3184 21.5372 40.1904 21.5372 40.0612V31.4411C21.5372 31.3119 21.5117 31.1839 21.4623 31.0645C21.4128 30.945 21.3403 30.8365 21.2489 30.7452C21.1575 30.6538 21.0489 30.5813 20.9295 30.5318C20.8101 30.4824 20.6821 30.457 20.5528 30.457ZM37.7953 31.0487C38.0359 31.1784 38.2404 31.3659 38.3904 31.5943C38.5411 31.8223 38.6326 32.0842 38.6567 32.3564C38.6808 32.6286 38.6367 32.9025 38.5284 33.1534L37.66 35.1747C37.1447 36.3758 36.2882 37.3994 35.1966 38.1183C34.1051 38.8373 32.8266 39.2201 31.5195 39.2193H22.7041V32.7667C23.341 32.6567 23.9283 32.3525 24.3856 31.8958L24.4473 31.8343C24.7594 31.5217 25.1303 31.274 25.5385 31.1053C25.9468 30.9367 26.3844 30.8505 26.8261 30.8518H29.2433C29.5406 30.8518 29.835 30.9105 30.1095 31.0246C30.3841 31.1386 30.6334 31.3058 30.8432 31.5164C31.053 31.727 31.2191 31.977 31.3321 32.252C31.445 32.527 31.5026 32.8216 31.5015 33.1188V33.1387C31.153 33.3755 30.7438 33.5072 30.3225 33.518H27.0441C26.8891 33.518 26.7405 33.5795 26.631 33.6891C26.5214 33.7987 26.4599 33.9473 26.4599 34.1022C26.4599 34.2571 26.5214 34.4057 26.631 34.5153C26.7405 34.6248 26.8891 34.6864 27.0441 34.6864L30.3382 34.6862C30.9165 34.6629 31.4808 34.5016 31.984 34.2156C32.4872 33.9296 32.9146 33.5273 33.2305 33.0423C33.4163 32.8352 33.5661 32.5983 33.6736 32.3416C33.8547 31.9002 34.1632 31.5227 34.5598 31.2573C34.9564 30.992 35.423 30.8508 35.9002 30.8518H37.0123C37.2856 30.8514 37.5547 30.9191 37.7953 31.0487Z" fill="#07031D"/>
<defs>
<filter id="filter0_f_1012_14" x="0.533886" y="0.533764" width="54.6612" height="54.6611" filterUnits="userSpaceOnUse" color-interpolation-filters="sRGB">
<feFlood flood-opacity="0" result="BackgroundImageFix"/>
<feBlend mode="normal" in="SourceGraphic" in2="BackgroundImageFix" result="shape"/>
<feGaussianBlur stdDeviation="2.73306" result="effect1_foregroundBlur_1012_14"/>
</filter>
<linearGradient id="paint0_linear_1012_14" x1="7.70202" y1="7.45751" x2="53.2302" y2="40.7074" gradientUnits="userSpaceOnUse">
<stop stop-color="#AA1FFE"/>
<stop offset="1" stop-color="#DD22E6"/>
</linearGradient>
</defs>
</svg>
