<svg width="56" height="56" viewBox="0 0 56 56" fill="none" xmlns="http://www.w3.org/2000/svg">
<g filter="url(#filter0_f_1015_33)">
<rect x="6" y="6" width="43.7289" height="43.7289" rx="3.64408" fill="url(#paint0_linear_1015_33)"/>
</g>
<path d="M6 10.0083C6 7.99577 7.63151 6.36426 9.64408 6.36426H46.0848C48.0974 6.36426 49.7289 7.99577 49.7289 10.0083V46.4491C49.7289 48.4617 48.0974 50.0932 46.0848 50.0932H9.64408C7.63151 50.0932 6 48.4617 6 46.4491V10.0083Z" fill="#07031D"/>
<path d="M23.4511 23.1546C23.3197 23.1717 23.1968 23.2317 23.1021 23.3264C22.989 23.4395 22.9254 23.5928 22.9251 23.7527C22.9251 23.7528 22.9251 23.7528 22.9251 23.7529M23.4511 23.1546L22.8321 23.7529C22.8321 23.7529 22.8321 23.7528 22.8321 23.7528L22.9251 23.7529M23.4511 23.1546L23.4511 24.8959M23.4511 23.1546L23.4511 24.8959M22.9251 23.7529V24.2497M22.9251 23.7529V24.2497M23.4511 24.8959C23.3261 24.8699 23.2103 24.8079 23.1187 24.7163C22.995 24.5926 22.9254 24.4248 22.9251 24.2499C22.9251 24.2498 22.9251 24.2497 22.9251 24.2497M23.4511 24.8959L22.9251 24.2497M30.3254 29.3203C29.7043 29.7166 28.9252 29.9538 28.0771 29.9541L28.032 29.9534C28.032 29.9534 28.0319 29.9534 28.0319 29.9534C27.2255 29.9397 26.4846 29.7117 25.8867 29.3374V29.0465C26.5672 29.4169 27.3307 29.612 28.1082 29.6122C28.8849 29.6123 29.6477 29.4179 30.3277 29.0485L30.3254 29.3203ZM30.7193 29.2334L30.7229 28.8078C31.3118 28.4084 31.8018 27.8791 32.1548 27.2604C32.4985 26.6578 32.7031 25.9865 32.7543 25.2958C32.9888 25.2684 33.2087 25.1628 33.3774 24.9942C33.5748 24.7968 33.6858 24.5292 33.6861 24.25V24.2499L33.6861 23.7527L33.6861 23.7525C33.6858 23.4955 33.5862 23.2485 33.4082 23.063C33.2751 22.9245 33.1058 22.8283 32.9215 22.7841C33.8568 19.8262 33.4085 18.2001 32.6202 17.3122C31.9301 16.5351 31.0126 16.3634 30.6693 16.3267C30.6449 16.1025 30.5501 15.6434 30.1783 15.2936C29.7294 14.8714 28.9285 14.6531 27.5267 15.0864C27.346 15.1422 27.1624 15.1972 26.9776 15.2524C26.4076 15.4229 25.8267 15.5967 25.2872 15.811C24.5708 16.0956 23.9082 16.4584 23.4153 16.999C22.4343 18.0752 22.1772 19.7912 23.2991 22.7836C23.1164 22.8269 22.9482 22.9213 22.8152 23.0578C22.634 23.2437 22.5324 23.4929 22.5321 23.7525V23.7527V24.2499L22.5321 24.25C22.5324 24.5292 22.6434 24.7968 22.8408 24.9942C23.0095 25.1628 23.2294 25.2684 23.4639 25.2958C23.5151 25.9863 23.7195 26.6574 24.0632 27.2599C24.4158 27.8782 24.9053 28.4073 25.4937 28.8066V29.2237C25.4584 29.2341 25.422 29.2517 25.3877 29.2803C25.2712 29.3774 25.2427 29.5455 25.2766 29.7615C25.3034 29.9319 25.2745 30.0783 25.2467 30.219C25.2404 30.2508 25.2342 30.2823 25.2287 30.3137C25.2192 30.3678 25.2081 30.4398 25.2189 30.5111C21.5946 31.1831 18.85 34.1771 18.85 37.7832V40V40.15H19H37.2182H37.3682V40V37.7832C37.3682 34.1663 34.6071 31.1652 30.9668 30.5051C30.9764 30.433 30.9645 30.3591 30.9542 30.3025C30.9493 30.2756 30.944 30.2485 30.9386 30.2212C30.9108 30.0798 30.8817 29.9321 30.9085 29.7615C30.939 29.5674 30.9194 29.4138 30.8303 29.3125C30.7961 29.2736 30.7575 29.2488 30.7193 29.2334ZM28.1091 29.2191C25.7611 29.2191 23.8499 27.3114 23.8441 24.9647V24.9541V22.2765C23.9506 22.5304 24.088 22.7453 24.2639 22.9159C24.6816 23.3214 25.2821 23.4465 26.087 23.3126C26.4488 23.2524 26.8378 23.0202 27.2047 22.7999L27.2278 22.786C27.6004 22.5622 27.9593 22.3466 28.3029 22.2559C28.4487 22.2174 28.5985 22.1808 28.7467 22.1446C28.9406 22.0972 29.1317 22.0505 29.3073 22.0011C29.6241 21.912 29.9246 21.8059 30.1809 21.6471C30.44 21.4866 30.6541 21.2723 30.7959 20.9703C30.9168 20.7126 30.9815 20.3989 30.9842 20.0135C31.1414 20.0487 31.3518 20.1078 31.578 20.3393C31.8762 20.6444 32.208 21.2655 32.3741 22.5685V24.9541C32.3741 27.3057 30.4607 29.2191 28.1091 29.2191ZM33.293 24.2497C33.2928 24.4247 33.2232 24.5925 33.0995 24.7163C33.0078 24.8079 32.8921 24.8698 32.7671 24.8959V23.1546C32.8985 23.1717 33.0214 23.2317 33.1161 23.3264C33.2292 23.4395 33.2929 23.5929 33.293 23.7529V24.2497Z" fill="#C720F0" stroke="#C720F0" stroke-width="0.3"/>
<defs>
<filter id="filter0_f_1015_33" x="0.533886" y="0.533886" width="54.6611" height="54.6611" filterUnits="userSpaceOnUse" color-interpolation-filters="sRGB">
<feFlood flood-opacity="0" result="BackgroundImageFix"/>
<feBlend mode="normal" in="SourceGraphic" in2="BackgroundImageFix" result="shape"/>
<feGaussianBlur stdDeviation="2.73306" result="effect1_foregroundBlur_1015_33"/>
</filter>
<linearGradient id="paint0_linear_1015_33" x1="7.70202" y1="7.45763" x2="53.2302" y2="40.7076" gradientUnits="userSpaceOnUse">
<stop stop-color="#AA1FFE"/>
<stop offset="1" stop-color="#DD22E6"/>
</linearGradient>
</defs>
</svg>
