<svg width="56" height="56" viewBox="0 0 56 56" fill="none" xmlns="http://www.w3.org/2000/svg">
<g filter="url(#filter0_f_1015_32)">
<rect x="6" y="5.99988" width="43.7289" height="43.7289" rx="3.64408" fill="url(#paint0_linear_1015_32)"/>
</g>
<path d="M6 8.64408C6 6.63151 7.63151 5 9.64408 5H46.0848C48.0974 5 49.7289 6.63151 49.7289 8.64408V45.0848C49.7289 47.0974 48.0974 48.7289 46.0848 48.7289H9.64408C7.63151 48.7289 6 47.0974 6 45.0848V8.64408Z" fill="#07031D"/>
<path d="M35.7339 20.9936C36.0439 20.4818 36.2377 19.9081 36.3016 19.3132C36.3918 18.305 36.0871 17.3012 35.4517 16.5133C34.8163 15.7255 33.8998 15.215 32.8955 15.0896C32.3019 14.9623 31.6873 14.9708 31.0975 15.1143C30.5077 15.2578 29.958 15.5327 29.4893 15.9184C29.0247 16.3289 28.6398 16.8216 28.3539 17.3717C28.068 16.8216 27.6831 16.3289 27.2185 15.9184C26.7498 15.5327 26.2 15.2578 25.6102 15.1143C25.0205 14.9708 24.4059 14.9623 23.8123 15.0896C22.808 15.215 21.8915 15.7255 21.2561 16.5133C20.6207 17.3012 20.316 18.305 20.4062 19.3132C20.4701 19.9081 20.6639 20.4818 20.9739 20.9936C19.8269 21.3542 18.8241 22.0697 18.11 23.0369C17.3958 24.0041 17.0071 25.1731 17 26.3753V34.3231C17 35.0686 17.1468 35.8068 17.4321 36.4955C17.7174 37.1843 18.1356 37.8101 18.6627 38.3373C19.7274 39.4019 21.1713 40 22.6769 40H34.0308C34.7763 40 35.5146 39.8532 36.2033 39.5679C36.8921 39.2826 37.5179 38.8644 38.045 38.3373C38.5722 37.8101 38.9904 37.1843 39.2757 36.4955C39.561 35.8068 39.7078 35.0686 39.7078 34.3231V26.3753C39.7006 25.1731 39.312 24.0041 38.5978 23.0369C37.8836 22.0697 36.8808 21.3542 35.7339 20.9936ZM30.9766 17.6669C31.1845 17.4919 31.4299 17.3671 31.6937 17.3022C31.9575 17.2372 32.2327 17.2338 32.4981 17.2922C32.7219 17.3029 32.9411 17.3599 33.1418 17.4594C33.3426 17.559 33.5205 17.699 33.6645 17.8708C33.8085 18.0425 33.9154 18.2421 33.9784 18.4571C34.0415 18.6722 34.0593 18.8979 34.0308 19.1202C34.0111 19.3519 33.9451 19.5772 33.8366 19.7829C33.7282 19.9885 33.5796 20.1704 33.3996 20.3175C33.2196 20.4647 33.0119 20.5742 32.7887 20.6397C32.5656 20.7051 32.3317 20.7251 32.1007 20.6984H29.6142C29.7317 19.568 30.2093 18.5053 30.9766 17.6669ZM24.1643 17.3263C24.3117 17.315 24.4597 17.315 24.6071 17.3263C24.9998 17.3185 25.3824 17.4514 25.6857 17.701C26.463 18.5242 26.9564 19.5746 27.0936 20.6984H24.6071C24.3761 20.7251 24.1422 20.7051 23.919 20.6397C23.6959 20.5742 23.4882 20.4647 23.3082 20.3175C23.1282 20.1704 22.9796 19.9885 22.8712 19.7829C22.7627 19.5772 22.6967 19.3519 22.6769 19.1202C22.6502 18.8982 22.6693 18.6731 22.733 18.4588C22.7967 18.2445 22.9037 18.0455 23.0474 17.8742C23.191 17.7028 23.3683 17.5628 23.5682 17.4627C23.7681 17.3626 23.9865 17.3046 24.2097 17.2922L24.1643 17.3263ZM34.0308 35.4584H29.4893C29.1882 35.4584 28.8994 35.3388 28.6864 35.1259C28.4735 34.913 28.3539 34.6242 28.3539 34.3231C28.3539 34.0219 28.4735 33.7331 28.6864 33.5202C28.8994 33.3073 29.1882 33.1877 29.4893 33.1877H34.0308C34.332 33.1877 34.6208 33.3073 34.8337 33.5202C35.0466 33.7331 35.1662 34.0219 35.1662 34.3231C35.1662 34.6242 35.0466 34.913 34.8337 35.1259C34.6208 35.3388 34.332 35.4584 34.0308 35.4584Z" fill="#BD21F5"/>
<defs>
<filter id="filter0_f_1015_32" x="0.533886" y="0.533764" width="54.6612" height="54.6611" filterUnits="userSpaceOnUse" color-interpolation-filters="sRGB">
<feFlood flood-opacity="0" result="BackgroundImageFix"/>
<feBlend mode="normal" in="SourceGraphic" in2="BackgroundImageFix" result="shape"/>
<feGaussianBlur stdDeviation="2.73306" result="effect1_foregroundBlur_1015_32"/>
</filter>
<linearGradient id="paint0_linear_1015_32" x1="7.70202" y1="7.45751" x2="53.2302" y2="40.7074" gradientUnits="userSpaceOnUse">
<stop stop-color="#AA1FFE"/>
<stop offset="1" stop-color="#DD22E6"/>
</linearGradient>
</defs>
</svg>
