<svg width="20" height="20" viewBox="0 0 20 20" fill="none" xmlns="http://www.w3.org/2000/svg">
<path d="M10.6534 1.04323L12.4828 7.06648V7.50482H12.9828H18.5867C19.3191 7.50482 19.6284 8.44169 19.0255 8.87796C19.0252 8.87819 19.0248 8.87843 19.0245 8.87867L14.4426 12.1514L14.1487 12.3614L14.2557 12.7064L16.0565 18.5118L16.0567 18.5125C16.276 19.2159 15.4577 19.7869 14.8736 19.3394L14.8724 19.3385L10.2257 15.7999L9.92327 15.5696L9.62049 15.7994L4.97369 19.3254L4.97183 19.3268C4.38776 19.7743 3.56941 19.2034 3.78877 18.4999L3.78899 18.4992L5.58978 12.6938L5.69681 12.3488L5.40285 12.1388L0.819017 8.86468L0.817548 8.86364C0.223184 8.44232 0.52106 7.49223 1.25879 7.49223H6.86264H7.23261L7.34079 7.13844L9.20455 1.04346L9.20457 1.04346L9.206 1.0386C9.41521 0.328801 10.4298 0.310589 10.6534 1.04323Z" fill="url(#paint0_linear_1106_16)" stroke="#411A68"/>
<defs>
<linearGradient id="paint0_linear_1106_16" x1="0.772427" y1="0.666667" x2="21.5457" y2="15.7205" gradientUnits="userSpaceOnUse">
<stop stop-color="#AA1FFE"/>
<stop offset="1" stop-color="#DD22E6"/>
</linearGradient>
</defs>
</svg>
