<svg width="34" height="34" viewBox="0 0 34 34" fill="none" xmlns="http://www.w3.org/2000/svg">
<g id="mdi:gift">
<path id="Vector" d="M12.8353 2.73394C10.1578 2.71978 7.55116 5.29811 8.74116 8.49978H4.25033C3.49888 8.49978 2.77821 8.79829 2.24686 9.32964C1.7155 9.861 1.41699 10.5817 1.41699 11.3331V14.1664C1.41699 14.5422 1.56625 14.9025 1.83192 15.1682C2.0976 15.4339 2.45794 15.5831 2.83366 15.5831H15.5837V11.3331H18.417V15.5831H31.167C31.5427 15.5831 31.9031 15.4339 32.1687 15.1682C32.4344 14.9025 32.5837 14.5422 32.5837 14.1664V11.3331C32.5837 10.5817 32.2851 9.861 31.7538 9.32964C31.2224 8.79829 30.5018 8.49978 29.7503 8.49978H25.2595C26.917 3.86728 20.6837 0.594778 17.8078 4.58978L17.0003 5.66645L16.1928 4.56145C15.3003 3.30061 14.0678 2.74811 12.8353 2.73394M12.7503 5.66645C14.0112 5.66645 14.6487 7.19645 13.7562 8.08895C12.8637 8.98145 11.3337 8.34395 11.3337 7.08311C11.3337 6.70739 11.4829 6.34705 11.7486 6.08138C12.0143 5.8157 12.3746 5.66645 12.7503 5.66645M21.2503 5.66645C22.5112 5.66645 23.1487 7.19645 22.2562 8.08895C21.3637 8.98145 19.8337 8.34395 19.8337 7.08311C19.8337 6.70739 19.9829 6.34705 20.2486 6.08138C20.5143 5.8157 20.8746 5.66645 21.2503 5.66645M2.83366 16.9998V28.3331C2.83366 29.0846 3.13217 29.8052 3.66352 30.3366C4.19488 30.8679 4.91555 31.1664 5.66699 31.1664H28.3337C29.0851 31.1664 29.8058 30.8679 30.3371 30.3366C30.8685 29.8052 31.167 29.0846 31.167 28.3331V16.9998H18.417V28.3331H15.5837V16.9998H2.83366Z" fill="white"/>
</g>
</svg>
